<mxfile host="app.diagrams.net" modified="2024-06-12T13:26:07.467Z" agent="Mozilla/5.0 (Windows NT 10.0; Win64; x64) AppleWebKit/537.36 (KHTML, like Gecko) Chrome/125.0.0.0 Safari/537.36" etag="uWuoTuLTx6WQHcBn6oUb" version="24.5.3" type="onedrive">
  <diagram id="C5RBs43oDa-KdzZeNtuy" name="Page-1">
    <mxGraphModel grid="1" page="1" gridSize="10" guides="1" tooltips="1" connect="1" arrows="1" fold="1" pageScale="1" pageWidth="827" pageHeight="1169" math="0" shadow="0">
      <root>
        <mxCell id="WIyWlLk6GJQsqaUBKTNV-0" />
        <mxCell id="WIyWlLk6GJQsqaUBKTNV-1" parent="WIyWlLk6GJQsqaUBKTNV-0" />
        <mxCell id="wqpQXSIZh20Himdg4qAh-8" style="edgeStyle=orthogonalEdgeStyle;rounded=0;orthogonalLoop=1;jettySize=auto;html=1;exitX=0.5;exitY=1;exitDx=0;exitDy=0;entryX=0.5;entryY=0;entryDx=0;entryDy=0;" edge="1" parent="WIyWlLk6GJQsqaUBKTNV-1" source="wqpQXSIZh20Himdg4qAh-0" target="wqpQXSIZh20Himdg4qAh-2">
          <mxGeometry relative="1" as="geometry" />
        </mxCell>
        <mxCell id="wqpQXSIZh20Himdg4qAh-0" value="&lt;font style=&quot;vertical-align: inherit;&quot;&gt;&lt;font style=&quot;vertical-align: inherit;&quot;&gt;Cliente&lt;/font&gt;&lt;/font&gt;" style="rounded=0;whiteSpace=wrap;html=1;" vertex="1" parent="WIyWlLk6GJQsqaUBKTNV-1">
          <mxGeometry x="160" y="25" width="120" height="60" as="geometry" />
        </mxCell>
        <mxCell id="V_rNA7clDiKWwvQ_zVsn-21" value="" style="edgeStyle=orthogonalEdgeStyle;rounded=0;orthogonalLoop=1;jettySize=auto;html=1;" edge="1" parent="WIyWlLk6GJQsqaUBKTNV-1" source="wqpQXSIZh20Himdg4qAh-1" target="wqpQXSIZh20Himdg4qAh-0">
          <mxGeometry relative="1" as="geometry" />
        </mxCell>
        <mxCell id="wqpQXSIZh20Himdg4qAh-1" value="&lt;font style=&quot;vertical-align: inherit;&quot;&gt;&lt;font style=&quot;vertical-align: inherit;&quot;&gt;Veiculo&lt;/font&gt;&lt;/font&gt;" style="rounded=0;whiteSpace=wrap;html=1;" vertex="1" parent="WIyWlLk6GJQsqaUBKTNV-1">
          <mxGeometry x="334" y="20" width="116" height="60" as="geometry" />
        </mxCell>
        <mxCell id="wqpQXSIZh20Himdg4qAh-12" style="edgeStyle=orthogonalEdgeStyle;rounded=0;orthogonalLoop=1;jettySize=auto;html=1;entryX=0;entryY=0.5;entryDx=0;entryDy=0;" edge="1" parent="WIyWlLk6GJQsqaUBKTNV-1" source="wqpQXSIZh20Himdg4qAh-2" target="wqpQXSIZh20Himdg4qAh-3">
          <mxGeometry relative="1" as="geometry">
            <Array as="points">
              <mxPoint x="390" y="280" />
              <mxPoint x="390" y="280" />
            </Array>
          </mxGeometry>
        </mxCell>
        <mxCell id="wqpQXSIZh20Himdg4qAh-2" value="&lt;font style=&quot;vertical-align: inherit;&quot;&gt;&lt;font style=&quot;vertical-align: inherit;&quot;&gt;Mecanico&lt;/font&gt;&lt;/font&gt;" style="rounded=0;whiteSpace=wrap;html=1;" vertex="1" parent="WIyWlLk6GJQsqaUBKTNV-1">
          <mxGeometry x="230" y="230" width="100" height="60" as="geometry" />
        </mxCell>
        <mxCell id="wqpQXSIZh20Himdg4qAh-3" value="Ordem de serviço (OS)" style="rounded=0;whiteSpace=wrap;html=1;" vertex="1" parent="WIyWlLk6GJQsqaUBKTNV-1">
          <mxGeometry x="540" y="250" width="120" height="60" as="geometry" />
        </mxCell>
        <mxCell id="V_rNA7clDiKWwvQ_zVsn-45" value="" style="edgeStyle=orthogonalEdgeStyle;rounded=0;orthogonalLoop=1;jettySize=auto;html=1;" edge="1" parent="WIyWlLk6GJQsqaUBKTNV-1" source="wqpQXSIZh20Himdg4qAh-4" target="wqpQXSIZh20Himdg4qAh-3">
          <mxGeometry relative="1" as="geometry" />
        </mxCell>
        <mxCell id="wqpQXSIZh20Himdg4qAh-4" value="Serviço" style="rounded=0;whiteSpace=wrap;html=1;" vertex="1" parent="WIyWlLk6GJQsqaUBKTNV-1">
          <mxGeometry x="460" y="350" width="120" height="60" as="geometry" />
        </mxCell>
        <mxCell id="wqpQXSIZh20Himdg4qAh-14" value="Placa" style="ellipse;whiteSpace=wrap;html=1;rounded=0;" vertex="1" parent="WIyWlLk6GJQsqaUBKTNV-1">
          <mxGeometry x="550" y="70" width="50" height="30" as="geometry" />
        </mxCell>
        <mxCell id="wqpQXSIZh20Himdg4qAh-16" value="Modelo" style="ellipse;whiteSpace=wrap;html=1;" vertex="1" parent="WIyWlLk6GJQsqaUBKTNV-1">
          <mxGeometry x="620" y="40" width="60" height="30" as="geometry" />
        </mxCell>
        <mxCell id="wqpQXSIZh20Himdg4qAh-17" value="Ano" style="ellipse;whiteSpace=wrap;html=1;" vertex="1" parent="WIyWlLk6GJQsqaUBKTNV-1">
          <mxGeometry x="490" y="10" width="40" height="20" as="geometry" />
        </mxCell>
        <mxCell id="V_rNA7clDiKWwvQ_zVsn-26" style="edgeStyle=orthogonalEdgeStyle;rounded=0;orthogonalLoop=1;jettySize=auto;html=1;" edge="1" parent="WIyWlLk6GJQsqaUBKTNV-1" source="wqpQXSIZh20Himdg4qAh-22" target="wqpQXSIZh20Himdg4qAh-1">
          <mxGeometry relative="1" as="geometry">
            <Array as="points">
              <mxPoint x="495" y="40" />
              <mxPoint x="495" y="50" />
            </Array>
          </mxGeometry>
        </mxCell>
        <mxCell id="wqpQXSIZh20Himdg4qAh-22" value="Documento" style="ellipse;whiteSpace=wrap;html=1;" vertex="1" parent="WIyWlLk6GJQsqaUBKTNV-1">
          <mxGeometry x="540" y="10" width="70" height="30" as="geometry" />
        </mxCell>
        <mxCell id="V_rNA7clDiKWwvQ_zVsn-17" value="" style="edgeStyle=orthogonalEdgeStyle;rounded=0;orthogonalLoop=1;jettySize=auto;html=1;" edge="1" parent="WIyWlLk6GJQsqaUBKTNV-1" source="wqpQXSIZh20Himdg4qAh-24" target="wqpQXSIZh20Himdg4qAh-0">
          <mxGeometry relative="1" as="geometry" />
        </mxCell>
        <mxCell id="wqpQXSIZh20Himdg4qAh-24" value="Nome" style="ellipse;whiteSpace=wrap;html=1;" vertex="1" parent="WIyWlLk6GJQsqaUBKTNV-1">
          <mxGeometry x="80" y="25" width="50" height="30" as="geometry" />
        </mxCell>
        <mxCell id="V_rNA7clDiKWwvQ_zVsn-19" style="edgeStyle=orthogonalEdgeStyle;rounded=0;orthogonalLoop=1;jettySize=auto;html=1;entryX=0.25;entryY=1;entryDx=0;entryDy=0;" edge="1" parent="WIyWlLk6GJQsqaUBKTNV-1" source="wqpQXSIZh20Himdg4qAh-25" target="wqpQXSIZh20Himdg4qAh-0">
          <mxGeometry relative="1" as="geometry" />
        </mxCell>
        <mxCell id="wqpQXSIZh20Himdg4qAh-25" value="Endereço" style="ellipse;whiteSpace=wrap;html=1;" vertex="1" parent="WIyWlLk6GJQsqaUBKTNV-1">
          <mxGeometry x="70" y="65" width="60" height="30" as="geometry" />
        </mxCell>
        <mxCell id="V_rNA7clDiKWwvQ_zVsn-35" style="edgeStyle=orthogonalEdgeStyle;rounded=0;orthogonalLoop=1;jettySize=auto;html=1;entryX=0;entryY=0.25;entryDx=0;entryDy=0;" edge="1" parent="WIyWlLk6GJQsqaUBKTNV-1" source="wqpQXSIZh20Himdg4qAh-28" target="wqpQXSIZh20Himdg4qAh-2">
          <mxGeometry relative="1" as="geometry" />
        </mxCell>
        <mxCell id="wqpQXSIZh20Himdg4qAh-28" value="Cnpj" style="ellipse;whiteSpace=wrap;html=1;" vertex="1" parent="WIyWlLk6GJQsqaUBKTNV-1">
          <mxGeometry x="120" y="200" width="40" height="30" as="geometry" />
        </mxCell>
        <mxCell id="V_rNA7clDiKWwvQ_zVsn-32" style="edgeStyle=orthogonalEdgeStyle;rounded=0;orthogonalLoop=1;jettySize=auto;html=1;" edge="1" parent="WIyWlLk6GJQsqaUBKTNV-1" source="wqpQXSIZh20Himdg4qAh-29" target="wqpQXSIZh20Himdg4qAh-2">
          <mxGeometry relative="1" as="geometry" />
        </mxCell>
        <mxCell id="wqpQXSIZh20Himdg4qAh-29" value="Razão social" style="ellipse;whiteSpace=wrap;html=1;" vertex="1" parent="WIyWlLk6GJQsqaUBKTNV-1">
          <mxGeometry x="90" y="270" width="50" height="40" as="geometry" />
        </mxCell>
        <mxCell id="V_rNA7clDiKWwvQ_zVsn-40" style="edgeStyle=orthogonalEdgeStyle;rounded=0;orthogonalLoop=1;jettySize=auto;html=1;entryX=0.25;entryY=1;entryDx=0;entryDy=0;" edge="1" parent="WIyWlLk6GJQsqaUBKTNV-1" source="wqpQXSIZh20Himdg4qAh-30" target="wqpQXSIZh20Himdg4qAh-2">
          <mxGeometry relative="1" as="geometry" />
        </mxCell>
        <mxCell id="wqpQXSIZh20Himdg4qAh-30" value="Local" style="ellipse;whiteSpace=wrap;html=1;" vertex="1" parent="WIyWlLk6GJQsqaUBKTNV-1">
          <mxGeometry x="150" y="310" width="50" height="30" as="geometry" />
        </mxCell>
        <mxCell id="V_rNA7clDiKWwvQ_zVsn-38" value="" style="edgeStyle=orthogonalEdgeStyle;rounded=0;orthogonalLoop=1;jettySize=auto;html=1;" edge="1" parent="WIyWlLk6GJQsqaUBKTNV-1" source="wqpQXSIZh20Himdg4qAh-31" target="wqpQXSIZh20Himdg4qAh-2">
          <mxGeometry relative="1" as="geometry" />
        </mxCell>
        <mxCell id="wqpQXSIZh20Himdg4qAh-31" value="Especialidades" style="ellipse;whiteSpace=wrap;html=1;" vertex="1" parent="WIyWlLk6GJQsqaUBKTNV-1">
          <mxGeometry x="220" y="340" width="90" height="30" as="geometry" />
        </mxCell>
        <mxCell id="V_rNA7clDiKWwvQ_zVsn-3" style="edgeStyle=orthogonalEdgeStyle;rounded=0;orthogonalLoop=1;jettySize=auto;html=1;" edge="1" parent="WIyWlLk6GJQsqaUBKTNV-1" source="wqpQXSIZh20Himdg4qAh-36" target="wqpQXSIZh20Himdg4qAh-4">
          <mxGeometry relative="1" as="geometry" />
        </mxCell>
        <mxCell id="wqpQXSIZh20Himdg4qAh-36" value="valor da Mão obra" style="ellipse;whiteSpace=wrap;html=1;" vertex="1" parent="WIyWlLk6GJQsqaUBKTNV-1">
          <mxGeometry x="445" y="440" width="60" height="40" as="geometry" />
        </mxCell>
        <mxCell id="wqpQXSIZh20Himdg4qAh-38" value="Numero" style="ellipse;whiteSpace=wrap;html=1;" vertex="1" parent="WIyWlLk6GJQsqaUBKTNV-1">
          <mxGeometry x="520" y="170" width="50" height="20" as="geometry" />
        </mxCell>
        <mxCell id="wqpQXSIZh20Himdg4qAh-39" value="d_Emissão" style="ellipse;whiteSpace=wrap;html=1;" vertex="1" parent="WIyWlLk6GJQsqaUBKTNV-1">
          <mxGeometry x="580" y="160" width="60" height="40" as="geometry" />
        </mxCell>
        <mxCell id="wqpQXSIZh20Himdg4qAh-40" value="Status" style="ellipse;whiteSpace=wrap;html=1;" vertex="1" parent="WIyWlLk6GJQsqaUBKTNV-1">
          <mxGeometry x="640" y="160" width="50" height="30" as="geometry" />
        </mxCell>
        <mxCell id="wqpQXSIZh20Himdg4qAh-43" style="edgeStyle=orthogonalEdgeStyle;rounded=0;orthogonalLoop=1;jettySize=auto;html=1;entryX=0.622;entryY=0.044;entryDx=0;entryDy=0;entryPerimeter=0;" edge="1" parent="WIyWlLk6GJQsqaUBKTNV-1" source="wqpQXSIZh20Himdg4qAh-39" target="wqpQXSIZh20Himdg4qAh-3">
          <mxGeometry relative="1" as="geometry" />
        </mxCell>
        <mxCell id="wqpQXSIZh20Himdg4qAh-44" style="edgeStyle=orthogonalEdgeStyle;rounded=0;orthogonalLoop=1;jettySize=auto;html=1;entryX=0.15;entryY=0.022;entryDx=0;entryDy=0;entryPerimeter=0;" edge="1" parent="WIyWlLk6GJQsqaUBKTNV-1" source="wqpQXSIZh20Himdg4qAh-38" target="wqpQXSIZh20Himdg4qAh-3">
          <mxGeometry relative="1" as="geometry" />
        </mxCell>
        <mxCell id="V_rNA7clDiKWwvQ_zVsn-43" style="edgeStyle=orthogonalEdgeStyle;rounded=0;orthogonalLoop=1;jettySize=auto;html=1;entryX=1;entryY=0.75;entryDx=0;entryDy=0;" edge="1" parent="WIyWlLk6GJQsqaUBKTNV-1" source="wqpQXSIZh20Himdg4qAh-46" target="wqpQXSIZh20Himdg4qAh-3">
          <mxGeometry relative="1" as="geometry">
            <Array as="points">
              <mxPoint x="765" y="290" />
              <mxPoint x="690" y="290" />
              <mxPoint x="690" y="295" />
            </Array>
          </mxGeometry>
        </mxCell>
        <mxCell id="wqpQXSIZh20Himdg4qAh-46" value="D_Conclussão" style="ellipse;whiteSpace=wrap;html=1;" vertex="1" parent="WIyWlLk6GJQsqaUBKTNV-1">
          <mxGeometry x="720" y="230" width="90" height="40" as="geometry" />
        </mxCell>
        <mxCell id="V_rNA7clDiKWwvQ_zVsn-44" style="edgeStyle=orthogonalEdgeStyle;rounded=0;orthogonalLoop=1;jettySize=auto;html=1;entryX=1;entryY=0.25;entryDx=0;entryDy=0;" edge="1" parent="WIyWlLk6GJQsqaUBKTNV-1" source="wqpQXSIZh20Himdg4qAh-48" target="wqpQXSIZh20Himdg4qAh-3">
          <mxGeometry relative="1" as="geometry">
            <Array as="points">
              <mxPoint x="680" y="265" />
            </Array>
          </mxGeometry>
        </mxCell>
        <mxCell id="wqpQXSIZh20Himdg4qAh-48" value="Valor" style="ellipse;whiteSpace=wrap;html=1;" vertex="1" parent="WIyWlLk6GJQsqaUBKTNV-1">
          <mxGeometry x="670" y="210" width="60" height="30" as="geometry" />
        </mxCell>
        <mxCell id="V_rNA7clDiKWwvQ_zVsn-5" style="edgeStyle=orthogonalEdgeStyle;rounded=0;orthogonalLoop=1;jettySize=auto;html=1;entryX=0.75;entryY=1;entryDx=0;entryDy=0;" edge="1" parent="WIyWlLk6GJQsqaUBKTNV-1" source="V_rNA7clDiKWwvQ_zVsn-4" target="wqpQXSIZh20Himdg4qAh-3">
          <mxGeometry relative="1" as="geometry" />
        </mxCell>
        <mxCell id="V_rNA7clDiKWwvQ_zVsn-4" value="Peça" style="rounded=0;whiteSpace=wrap;html=1;" vertex="1" parent="WIyWlLk6GJQsqaUBKTNV-1">
          <mxGeometry x="650" y="352.5" width="120" height="55" as="geometry" />
        </mxCell>
        <mxCell id="V_rNA7clDiKWwvQ_zVsn-12" value="" style="edgeStyle=orthogonalEdgeStyle;rounded=0;orthogonalLoop=1;jettySize=auto;html=1;" edge="1" parent="WIyWlLk6GJQsqaUBKTNV-1" source="V_rNA7clDiKWwvQ_zVsn-6" target="V_rNA7clDiKWwvQ_zVsn-4">
          <mxGeometry relative="1" as="geometry">
            <Array as="points">
              <mxPoint x="640" y="428" />
              <mxPoint x="680" y="428" />
            </Array>
          </mxGeometry>
        </mxCell>
        <mxCell id="V_rNA7clDiKWwvQ_zVsn-6" value="Descrição" style="ellipse;whiteSpace=wrap;html=1;" vertex="1" parent="WIyWlLk6GJQsqaUBKTNV-1">
          <mxGeometry x="610" y="430" width="60" height="30" as="geometry" />
        </mxCell>
        <mxCell id="V_rNA7clDiKWwvQ_zVsn-13" value="" style="edgeStyle=orthogonalEdgeStyle;rounded=0;orthogonalLoop=1;jettySize=auto;html=1;" edge="1" parent="WIyWlLk6GJQsqaUBKTNV-1" source="V_rNA7clDiKWwvQ_zVsn-7" target="V_rNA7clDiKWwvQ_zVsn-4">
          <mxGeometry relative="1" as="geometry" />
        </mxCell>
        <mxCell id="V_rNA7clDiKWwvQ_zVsn-7" value="Registro" style="ellipse;whiteSpace=wrap;html=1;" vertex="1" parent="WIyWlLk6GJQsqaUBKTNV-1">
          <mxGeometry x="650" y="470" width="50" height="30" as="geometry" />
        </mxCell>
        <mxCell id="V_rNA7clDiKWwvQ_zVsn-8" value="Codigo" style="ellipse;whiteSpace=wrap;html=1;" vertex="1" parent="WIyWlLk6GJQsqaUBKTNV-1">
          <mxGeometry x="710" y="480" width="40" height="30" as="geometry" />
        </mxCell>
        <mxCell id="V_rNA7clDiKWwvQ_zVsn-15" style="edgeStyle=orthogonalEdgeStyle;rounded=0;orthogonalLoop=1;jettySize=auto;html=1;entryX=0.672;entryY=0.985;entryDx=0;entryDy=0;entryPerimeter=0;" edge="1" parent="WIyWlLk6GJQsqaUBKTNV-1" source="V_rNA7clDiKWwvQ_zVsn-8" target="V_rNA7clDiKWwvQ_zVsn-4">
          <mxGeometry relative="1" as="geometry" />
        </mxCell>
        <mxCell id="V_rNA7clDiKWwvQ_zVsn-16" style="edgeStyle=orthogonalEdgeStyle;rounded=0;orthogonalLoop=1;jettySize=auto;html=1;entryX=0.878;entryY=-0.044;entryDx=0;entryDy=0;entryPerimeter=0;" edge="1" parent="WIyWlLk6GJQsqaUBKTNV-1" source="wqpQXSIZh20Himdg4qAh-40" target="wqpQXSIZh20Himdg4qAh-3">
          <mxGeometry relative="1" as="geometry" />
        </mxCell>
        <mxCell id="V_rNA7clDiKWwvQ_zVsn-25" style="edgeStyle=orthogonalEdgeStyle;rounded=0;orthogonalLoop=1;jettySize=auto;html=1;entryX=0.994;entryY=0.133;entryDx=0;entryDy=0;entryPerimeter=0;" edge="1" parent="WIyWlLk6GJQsqaUBKTNV-1" source="wqpQXSIZh20Himdg4qAh-17" target="wqpQXSIZh20Himdg4qAh-1">
          <mxGeometry relative="1" as="geometry" />
        </mxCell>
        <mxCell id="V_rNA7clDiKWwvQ_zVsn-29" style="edgeStyle=orthogonalEdgeStyle;rounded=0;orthogonalLoop=1;jettySize=auto;html=1;entryX=0.655;entryY=1;entryDx=0;entryDy=0;entryPerimeter=0;" edge="1" parent="WIyWlLk6GJQsqaUBKTNV-1" source="wqpQXSIZh20Himdg4qAh-14" target="wqpQXSIZh20Himdg4qAh-1">
          <mxGeometry relative="1" as="geometry" />
        </mxCell>
        <mxCell id="V_rNA7clDiKWwvQ_zVsn-30" style="edgeStyle=orthogonalEdgeStyle;rounded=0;orthogonalLoop=1;jettySize=auto;html=1;entryX=0.914;entryY=0.833;entryDx=0;entryDy=0;entryPerimeter=0;" edge="1" parent="WIyWlLk6GJQsqaUBKTNV-1" source="wqpQXSIZh20Himdg4qAh-16" target="wqpQXSIZh20Himdg4qAh-1">
          <mxGeometry relative="1" as="geometry" />
        </mxCell>
      </root>
    </mxGraphModel>
  </diagram>
</mxfile>
